<svg width="182" height="176" viewBox="0 0 182 176" fill="none" xmlns="http://www.w3.org/2000/svg">
<g filter="url(#filter0_d)">
<ellipse cx="91" cy="84" rx="84" ry="81" fill="#F7F8FA"/>
<ellipse cx="91" cy="84" rx="84" ry="81" stroke="#0678FE" stroke-width="6"/>
</g>
<path d="M135 67.6241H90.55L112.712 6L45 100.376H89.45L67.2877 162L135 67.6241Z" fill="#0678FE"/>
<path d="M67.58 85.86C67.58 86.64 67.96 86.96 68.74 86.96H70.46V87.66C70.46 89.72 69.62 90.8 68.12 90.8C66.92 90.8 66.18 89.48 65.96 87.62C65.9 87.02 65.84 86.16 65.82 85.06C65.8 83.94 65.84 83.04 65.9 82.36C66 81.26 66.28 80.46 66.74 79.96C67.2 79.46 67.66 79.2 68.16 79.2C69.14 79.2 70.14 80.12 70.4 81.72H74.48C74.38 80.14 73.72 78.8 72.48 77.72C71.26 76.62 69.8 76.08 68.12 76.08C66.66 76.08 65.34 76.54 64.16 77.46C62.98 78.36 62.26 79.68 61.98 81.4C61.8 82.48 61.74 83.7 61.78 85.08C61.82 86.46 61.92 87.62 62.08 88.56C62.36 90.2 63.04 91.5 64.12 92.46C65.22 93.44 66.54 93.92 68.08 93.92C72.38 93.92 74.5 91.78 74.5 86.72V84.04H67.58V85.86ZM87.7973 92.28V90.54H80.6773V76.34H76.6173V92.28C76.6173 93.18 77.1173 93.66 78.0173 93.66H86.3973C87.2973 93.66 87.7973 93.18 87.7973 92.28ZM99.3536 87.24C99.3536 82.78 97.3336 80.76 93.9136 80.76C90.5336 80.76 88.4736 82.78 88.4736 87.24C88.4736 91.7 90.2336 93.76 93.9136 93.76C97.7736 93.76 99.3536 91.72 99.3536 87.24ZM95.3336 87.24C95.3336 89.5 94.8536 90.82 93.9136 90.82C93.0336 90.82 92.4936 89.5 92.4936 87.24C92.4936 84.7 93.0936 83.7 93.9136 83.7C94.6936 83.7 95.3336 84.7 95.3336 87.24ZM111.107 92.96V83.2C111.107 82.32 111.107 81.68 111.207 80.74H107.527C107.427 81 107.387 81.24 107.407 81.42C107.087 80.96 106.267 80.6 104.927 80.6C101.867 80.6 100.427 82.68 100.427 86.74C100.427 90.96 101.727 92.92 104.907 92.92C106.187 92.92 106.647 92.54 107.047 92.12V92.88C107.047 94.24 106.647 95.46 105.787 95.46C105.367 95.46 104.807 95.12 104.587 94.06H100.607C100.627 95.28 101.087 96.28 102.007 97.06C102.927 97.84 104.087 98.24 105.507 98.24C107.327 98.24 108.727 97.74 109.667 96.72C110.627 95.7 111.107 94.46 111.107 92.96ZM107.047 86.74C107.047 87.6 106.947 88.34 106.747 89C106.547 89.66 106.207 89.98 105.727 89.98C105.307 89.98 104.987 89.66 104.767 89.02C104.547 88.36 104.447 87.6 104.447 86.74C104.447 84.84 104.987 83.56 105.727 83.56C106.587 83.56 107.047 84.76 107.047 86.74Z" fill="#FCFCFC"/>
<defs>
<filter id="filter0_d" x="0" y="0" width="182" height="176" filterUnits="userSpaceOnUse" color-interpolation-filters="sRGB">
<feFlood flood-opacity="0" result="BackgroundImageFix"/>
<feColorMatrix in="SourceAlpha" type="matrix" values="0 0 0 0 0 0 0 0 0 0 0 0 0 0 0 0 0 0 127 0"/>
<feOffset dy="4"/>
<feGaussianBlur stdDeviation="2"/>
<feColorMatrix type="matrix" values="0 0 0 0 0 0 0 0 0 0 0 0 0 0 0 0 0 0 0.25 0"/>
<feBlend mode="normal" in2="BackgroundImageFix" result="effect1_dropShadow"/>
<feBlend mode="normal" in="SourceGraphic" in2="effect1_dropShadow" result="shape"/>
</filter>
</defs>
</svg>
